# xmcd
#
# Track frame offsets: 
#        150
#        24080
#        42433
#        58853
#        91443
#        111150
#        133055
#        164178
#        193843
#        218183
#        253100
#
# Disc length: 3892 seconds
#
# Revision: 5
# Processed by: cddbd v1.5.2PL0 Copyright (c) Steve Scherf et al.
# Submitted via: ExactAudioCopyFreeDBPlugin 1.0
#
DISCID=a60f320b
DTITLE=HANS THEESSINK and BLUE GROOVE - Live
DYEAR=1993
DGENRE=Blues
TTITLE0=Built For Comfort  [live]
TTITLE1=Jesus On The Mainline  [live]
TTITLE2=Charly Stone  [live]
TTITLE3=I Shall Not Be Moved  [live]
TTITLE4=Call Me  [live]
TTITLE5=Yes We Can Can  [live]
TTITLE6=Rock The Boat  [live]
TTITLE7=Cocaine Blues  [live]
TTITLE8=The Planet  [live]
TTITLE9=Will The Circle Be Unbroken  [live]
TTITLE10=Shake Your Moneymaker  [live]
EXTD=
EXTT0=
EXTT1=
EXTT2=
EXTT3=
EXTT4=
EXTT5=
EXTT6=
EXTT7=
EXTT8=
EXTT9=
EXTT10=
PLAYORDER=
